<mxfile host="app.diagrams.net" modified="2024-04-15T17:24:30.956Z" agent="Mozilla/5.0 (X11; Ubuntu; Linux x86_64; rv:124.0) Gecko/20100101 Firefox/124.0" etag="xH4ug1tE0XeTiAcueP5F" version="24.2.3" type="google">
  <diagram name="Page-1" id="wSPMSMsArdjjlvC-0VFi">
    <mxGraphModel grid="1" page="1" gridSize="10" guides="1" tooltips="1" connect="1" arrows="1" fold="1" pageScale="1" pageWidth="850" pageHeight="1100" math="0" shadow="0">
      <root>
        <mxCell id="0" />
        <mxCell id="1" parent="0" />
        <mxCell id="t5c1oDLXOIsxbmZu2U_f-7" style="edgeStyle=orthogonalEdgeStyle;rounded=0;orthogonalLoop=1;jettySize=auto;html=1;exitX=0.25;exitY=0;exitDx=0;exitDy=0;entryX=0;entryY=0.5;entryDx=0;entryDy=0;strokeWidth=3;fontSize=15;" edge="1" parent="1" source="t5c1oDLXOIsxbmZu2U_f-3" target="t5c1oDLXOIsxbmZu2U_f-37">
          <mxGeometry relative="1" as="geometry">
            <mxPoint x="200" y="230" as="targetPoint" />
            <Array as="points">
              <mxPoint x="200" y="401" />
              <mxPoint x="200" y="225" />
            </Array>
          </mxGeometry>
        </mxCell>
        <mxCell id="t5c1oDLXOIsxbmZu2U_f-1" value="&lt;font style=&quot;font-size: 28px;&quot;&gt;DROC&lt;/font&gt;" style="rounded=0;whiteSpace=wrap;html=1;strokeWidth=3;fontSize=15;" vertex="1" parent="1">
          <mxGeometry x="160" y="420" width="200" height="111" as="geometry" />
        </mxCell>
        <mxCell id="t5c1oDLXOIsxbmZu2U_f-2" value="" style="triangle;whiteSpace=wrap;html=1;rotation=-90;strokeWidth=3;fontSize=15;" vertex="1" parent="1">
          <mxGeometry x="251.25" y="503.75" width="17.5" height="35" as="geometry" />
        </mxCell>
        <mxCell id="t5c1oDLXOIsxbmZu2U_f-24" style="edgeStyle=orthogonalEdgeStyle;rounded=0;orthogonalLoop=1;jettySize=auto;html=1;exitX=0;exitY=0.5;exitDx=0;exitDy=0;strokeWidth=3;fontSize=15;endArrow=none;endFill=0;" edge="1" parent="1">
          <mxGeometry relative="1" as="geometry">
            <mxPoint x="318.9922480620155" y="410" as="targetPoint" />
            <mxPoint x="319" y="420" as="sourcePoint" />
          </mxGeometry>
        </mxCell>
        <mxCell id="t5c1oDLXOIsxbmZu2U_f-25" style="edgeStyle=orthogonalEdgeStyle;rounded=0;orthogonalLoop=1;jettySize=auto;html=1;exitX=0;exitY=0.5;exitDx=0;exitDy=0;strokeWidth=3;fontSize=15;endArrow=none;endFill=0;" edge="1" parent="1" source="t5c1oDLXOIsxbmZu2U_f-26">
          <mxGeometry relative="1" as="geometry">
            <mxPoint x="318.9922480620155" y="350" as="targetPoint" />
          </mxGeometry>
        </mxCell>
        <mxCell id="t5c1oDLXOIsxbmZu2U_f-26" value="&lt;font style=&quot;font-size: 21px;&quot;&gt;JTL&lt;br style=&quot;font-size: 21px;&quot;&gt;&lt;/font&gt;" style="rounded=0;whiteSpace=wrap;html=1;rotation=90;strokeWidth=3;fontSize=21;" vertex="1" parent="1">
          <mxGeometry x="294" y="370" width="50" height="30" as="geometry" />
        </mxCell>
        <mxCell id="t5c1oDLXOIsxbmZu2U_f-27" style="edgeStyle=orthogonalEdgeStyle;rounded=0;orthogonalLoop=1;jettySize=auto;html=1;exitX=0;exitY=0.5;exitDx=0;exitDy=0;strokeWidth=3;fontSize=15;endArrow=none;endFill=0;" edge="1" parent="1" source="t5c1oDLXOIsxbmZu2U_f-28">
          <mxGeometry relative="1" as="geometry">
            <mxPoint x="318.9922480620155" y="290" as="targetPoint" />
          </mxGeometry>
        </mxCell>
        <mxCell id="t5c1oDLXOIsxbmZu2U_f-28" value="&lt;font style=&quot;font-size: 21px;&quot;&gt;JTL&lt;br style=&quot;font-size: 21px;&quot;&gt;&lt;/font&gt;" style="rounded=0;whiteSpace=wrap;html=1;rotation=90;strokeWidth=3;fontSize=21;" vertex="1" parent="1">
          <mxGeometry x="294" y="310" width="50" height="30" as="geometry" />
        </mxCell>
        <mxCell id="t5c1oDLXOIsxbmZu2U_f-29" style="edgeStyle=orthogonalEdgeStyle;rounded=0;orthogonalLoop=1;jettySize=auto;html=1;exitX=0;exitY=0.5;exitDx=0;exitDy=0;entryX=1;entryY=0.5;entryDx=0;entryDy=0;strokeWidth=3;fontSize=15;" edge="1" parent="1" source="t5c1oDLXOIsxbmZu2U_f-30" target="t5c1oDLXOIsxbmZu2U_f-37">
          <mxGeometry relative="1" as="geometry">
            <mxPoint x="318.9922480620155" y="230" as="targetPoint" />
            <Array as="points">
              <mxPoint x="319" y="225" />
            </Array>
          </mxGeometry>
        </mxCell>
        <mxCell id="t5c1oDLXOIsxbmZu2U_f-30" value="&lt;font style=&quot;font-size: 21px;&quot;&gt;JTL&lt;br style=&quot;font-size: 21px;&quot;&gt;&lt;/font&gt;" style="rounded=0;whiteSpace=wrap;html=1;rotation=90;strokeWidth=3;fontSize=21;" vertex="1" parent="1">
          <mxGeometry x="294" y="250" width="50" height="30" as="geometry" />
        </mxCell>
        <mxCell id="t5c1oDLXOIsxbmZu2U_f-31" value="" style="shape=curlyBracket;whiteSpace=wrap;html=1;rounded=1;flipH=1;labelPosition=right;verticalLabelPosition=middle;align=left;verticalAlign=middle;strokeWidth=3;fontSize=15;" vertex="1" parent="1">
          <mxGeometry x="340" y="240" width="20" height="170" as="geometry" />
        </mxCell>
        <mxCell id="t5c1oDLXOIsxbmZu2U_f-32" value="Controlled&lt;br style=&quot;font-size: 18px;&quot;&gt;delay" style="text;html=1;align=center;verticalAlign=middle;whiteSpace=wrap;rounded=0;strokeWidth=3;fontSize=18;" vertex="1" parent="1">
          <mxGeometry x="365" y="310" width="60" height="30" as="geometry" />
        </mxCell>
        <mxCell id="t5c1oDLXOIsxbmZu2U_f-33" value="" style="endArrow=classic;html=1;rounded=0;entryX=1;entryY=0.5;entryDx=0;entryDy=0;strokeWidth=3;fontSize=15;" edge="1" parent="1" target="t5c1oDLXOIsxbmZu2U_f-1">
          <mxGeometry width="50" height="50" relative="1" as="geometry">
            <mxPoint x="400" y="476" as="sourcePoint" />
            <mxPoint x="380" y="449.79999999999995" as="targetPoint" />
          </mxGeometry>
        </mxCell>
        <mxCell id="t5c1oDLXOIsxbmZu2U_f-34" value="Ctrl" style="text;html=1;align=center;verticalAlign=middle;whiteSpace=wrap;rounded=0;strokeWidth=3;fontSize=18;" vertex="1" parent="1">
          <mxGeometry x="351" y="444" width="60" height="30" as="geometry" />
        </mxCell>
        <mxCell id="t5c1oDLXOIsxbmZu2U_f-35" value="" style="endArrow=classic;html=1;rounded=0;entryX=0;entryY=0.5;entryDx=0;entryDy=0;strokeWidth=3;fontSize=15;" edge="1" parent="1" target="t5c1oDLXOIsxbmZu2U_f-2">
          <mxGeometry width="50" height="50" relative="1" as="geometry">
            <mxPoint x="260" y="560" as="sourcePoint" />
            <mxPoint x="258" y="550" as="targetPoint" />
          </mxGeometry>
        </mxCell>
        <mxCell id="t5c1oDLXOIsxbmZu2U_f-36" value="Time_in" style="text;html=1;align=center;verticalAlign=middle;whiteSpace=wrap;rounded=0;strokeWidth=3;fontSize=18;" vertex="1" parent="1">
          <mxGeometry x="268.75" y="531" width="60" height="27" as="geometry" />
        </mxCell>
        <mxCell id="t5c1oDLXOIsxbmZu2U_f-38" style="edgeStyle=orthogonalEdgeStyle;rounded=0;orthogonalLoop=1;jettySize=auto;html=1;exitX=0.5;exitY=0;exitDx=0;exitDy=0;strokeWidth=3;fontSize=15;" edge="1" parent="1" source="t5c1oDLXOIsxbmZu2U_f-37">
          <mxGeometry relative="1" as="geometry">
            <mxPoint x="260" y="180" as="targetPoint" />
          </mxGeometry>
        </mxCell>
        <mxCell id="t5c1oDLXOIsxbmZu2U_f-37" value="&lt;font style=&quot;font-size: 21px;&quot;&gt;M&lt;/font&gt;" style="whiteSpace=wrap;html=1;aspect=fixed;strokeWidth=3;fontSize=21;" vertex="1" parent="1">
          <mxGeometry x="245" y="210" width="30" height="30" as="geometry" />
        </mxCell>
        <mxCell id="t5c1oDLXOIsxbmZu2U_f-39" value="Time_out" style="text;html=1;align=center;verticalAlign=middle;whiteSpace=wrap;rounded=0;strokeWidth=3;fontSize=18;" vertex="1" parent="1">
          <mxGeometry x="275" y="180" width="60" height="30" as="geometry" />
        </mxCell>
        <mxCell id="t5c1oDLXOIsxbmZu2U_f-3" value="" style="ellipse;whiteSpace=wrap;html=1;aspect=fixed;strokeWidth=3;fontSize=15;" vertex="1" parent="1">
          <mxGeometry x="192" y="400" width="16" height="16" as="geometry" />
        </mxCell>
      </root>
    </mxGraphModel>
  </diagram>
</mxfile>
